<svg xmlns="http://www.w3.org/2000/svg" width="1280" height="456" viewBox="0 0 1280 456" role="img" aria-label="Versioned Source Projects">
<style>
  .title { font: 700 30px ui-sans-serif, -apple-system, BlinkMacSystemFont, "Segoe UI", sans-serif; fill: #0f172a; }
  .subtitle { font: 400 15px ui-sans-serif, -apple-system, BlinkMacSystemFont, "Segoe UI", sans-serif; fill: #475569; }
  .axis { font: 500 13px ui-sans-serif, -apple-system, BlinkMacSystemFont, "Segoe UI", sans-serif; fill: #475569; }
  .label { font: 600 14px ui-sans-serif, -apple-system, BlinkMacSystemFont, "Segoe UI", sans-serif; fill: #0f172a; }
  .value { font: 600 13px ui-sans-serif, -apple-system, BlinkMacSystemFont, "Segoe UI", sans-serif; fill: #0f172a; }
  .legend { font: 600 13px ui-sans-serif, -apple-system, BlinkMacSystemFont, "Segoe UI", sans-serif; fill: #334155; }
  .grid { stroke: #e2e8f0; stroke-width: 1; }
  .ref { stroke: #94a3b8; stroke-width: 1.5; stroke-dasharray: 6 5; }
  .axisline { stroke: #94a3b8; stroke-width: 1.5; }
</style>
        <rect width="1280" height="456" fill="#f8fafc" rx="20" ry="20"/><text x="250" y="48" class="title">Versioned Source Projects</text><text x="250" y="75" class="subtitle">Conversation results for fd, lsd, and bat release archives.</text><rect x="250" y="90" width="16" height="16" rx="3" fill="#0f766e"/><text x="274" y="102" class="legend">size smaller</text><rect x="412" y="90" width="16" height="16" rx="3" fill="#2563eb"/><text x="436" y="102" class="legend">pack time reduction</text><rect x="630" y="90" width="16" height="16" rx="3" fill="#ea580c"/><text x="654" y="102" class="legend">dedup</text><line x1="250.00" y1="154" x2="250.00" y2="406" class="grid"/><text x="250.00" y="428" text-anchor="middle" class="axis">0.0</text><line x1="440.00" y1="154" x2="440.00" y2="406" class="grid"/><text x="440.00" y="428" text-anchor="middle" class="axis">20.0</text><line x1="630.00" y1="154" x2="630.00" y2="406" class="grid"/><text x="630.00" y="428" text-anchor="middle" class="axis">40.0</text><line x1="820.00" y1="154" x2="820.00" y2="406" class="grid"/><text x="820.00" y="428" text-anchor="middle" class="axis">60.0</text><line x1="1010.00" y1="154" x2="1010.00" y2="406" class="grid"/><text x="1010.00" y="428" text-anchor="middle" class="axis">80.0</text><line x1="1200.00" y1="154" x2="1200.00" y2="406" class="grid"/><text x="1200.00" y="428" text-anchor="middle" class="axis">100.0</text><line x1="250.00" y1="154" x2="250.00" y2="406" class="axisline"/><text x="236" y="192.00" text-anchor="end" class="label">fd (8 versions)</text><rect x="250.00" y="154.00" width="436.05" height="18" rx="5" fill="#0f766e" opacity="0.92"/><text x="693.05" y="168.00" text-anchor="start" class="value">45.9%</text><rect x="250.00" y="178.00" width="855.00" height="18" rx="5" fill="#2563eb" opacity="0.92"/><text x="1112.00" y="192.00" text-anchor="start" class="value">90.0%</text><rect x="250.00" y="202.00" width="601.35" height="18" rx="5" fill="#ea580c" opacity="0.92"/><text x="858.35" y="216.00" text-anchor="start" class="value">63.3%</text><text x="236" y="276.00" text-anchor="end" class="label">lsd (7 versions)</text><rect x="250.00" y="238.00" width="395.20" height="18" rx="5" fill="#0f766e" opacity="0.92"/><text x="652.20" y="252.00" text-anchor="start" class="value">41.6%</text><rect x="250.00" y="262.00" width="855.00" height="18" rx="5" fill="#2563eb" opacity="0.92"/><text x="1112.00" y="276.00" text-anchor="start" class="value">90.0%</text><rect x="250.00" y="286.00" width="638.40" height="18" rx="5" fill="#ea580c" opacity="0.92"/><text x="895.40" y="300.00" text-anchor="start" class="value">67.2%</text><text x="236" y="360.00" text-anchor="end" class="label">bat (8 versions)</text><rect x="250.00" y="322.00" width="667.85" height="18" rx="5" fill="#0f766e" opacity="0.92"/><text x="924.85" y="336.00" text-anchor="start" class="value">70.3%</text><rect x="250.00" y="346.00" width="416.10" height="18" rx="5" fill="#2563eb" opacity="0.92"/><text x="673.10" y="360.00" text-anchor="start" class="value">43.8%</text><rect x="250.00" y="370.00" width="772.35" height="18" rx="5" fill="#ea580c" opacity="0.92"/><text x="1029.35" y="384.00" text-anchor="start" class="value">81.3%</text><text x="725.00" y="432" text-anchor="middle" class="axis">Percentage</text></svg>